ffmpeg started on 2025-06-06 at 16:42:09
Report written to "D:\Convert\FFMetrics\reports\ssim_report-6.txt"
Log level: 32
Command line:
ffmpeg -hide_banner -nostdin -i "G:\\\xc0\xed\xe8\xec\xe5\\\xce\xed\xe3\xee\xe8\xed\xe3\xe8\\!_36_\xce\xf1\xe5\xed\xfc_2024\\DreamCast\\\xcf\xeb\xee\xf5\xe0\xff \xef\xee\xe5\xe7\xe4\xea\xe0\\[DC] Acro Trip - 02_Telegram_HEVC.mkv" -i "G:\\\xc0\xed\xe8\xec\xe5\\\xce\xed\xe3\xee\xe8\xed\xe3\xe8\\!_36_\xce\xf1\xe5\xed\xfc_2024\\DreamCast\\\xcf\xeb\xee\xf5\xe0\xff \xef\xee\xe5\xe7\xe4\xea\xe0\\[DC] Acro Trip - 02_Telegram.mp4" -lavfi "[0:v]settb=AVTB,setpts=PTS-STARTPTS,format=pix_fmts=yuv420p10,fps=24000/1001,scale=1920:1080:flags=bicubic[main];[1:v]settb=AVTB,setpts=PTS-STARTPTS,format=pix_fmts=yuv420p,fps=24000/1001,scale=1920:1080:flags=bicubic[ref];[main][ref]ssim=eof_action=endall:stats_file='D\\:/Convert/FFMetrics/logs/ssim_logfile-6.txt'" -f null -
Input #0, matroska,webm, from 'G:\Аниме\Онгоинги\!_36_Осень_2024\DreamCast\Плохая поездка\[DC] Acro Trip - 02_Telegram_HEVC.mkv':
  Metadata:
    COMPATIBLE_BRANDS: isomiso2avc1mp41
    MAJOR_BRAND     : isom
    MINOR_VERSION   : 512
    ENCODER         : Lavf61.7.100
  Duration: 00:23:46.69, start: -0.021000, bitrate: 1151 kb/s
  Stream #0:0: Video: hevc (Main 10), yuv420p10le(tv, bt709, progressive), 1920x1080 [SAR 1:1 DAR 16:9], 23.98 fps, 23.98 tbr, 1k tbn (default)
      Metadata:
        HANDLER_NAME    : VideoHandler
        VENDOR_ID       : [0][0][0][0]
        ENCODER         : Lavc61.19.100 libx265
        BPS             : 953480
        DURATION        : 00:23:46.591708333
        NUMBER_OF_FRAMES: 34204
        NUMBER_OF_BYTES : 170028272
        _STATISTICS_WRITING_APP: mkvpropedit v66.0.0 ('Josie') 64-bit
        _STATISTICS_WRITING_DATE_UTC: 2025-06-02 11:35:01
        _STATISTICS_TAGS: BPS DURATION NUMBER_OF_FRAMES NUMBER_OF_BYTES
  Stream #0:1: Audio: aac (LC), 48000 Hz, stereo, fltp (default)
      Metadata:
        HANDLER_NAME    : SoundHandler
        VENDOR_ID       : [0][0][0][0]
        ENCODER         : Lavc61.19.100 aac
        BPS             : 193839
        DURATION        : 00:23:46.688000000
        NUMBER_OF_FRAMES: 66877
        NUMBER_OF_BYTES : 34568476
        _STATISTICS_WRITING_APP: mkvpropedit v66.0.0 ('Josie') 64-bit
        _STATISTICS_WRITING_DATE_UTC: 2025-06-02 11:35:01
        _STATISTICS_TAGS: BPS DURATION NUMBER_OF_FRAMES NUMBER_OF_BYTES
Input #1, mov,mp4,m4a,3gp,3g2,mj2, from 'G:\Аниме\Онгоинги\!_36_Осень_2024\DreamCast\Плохая поездка\[DC] Acro Trip - 02_Telegram.mp4':
  Metadata:
    major_brand     : isom
    minor_version   : 512
    compatible_brands: isomiso2avc1mp41
    encoder         : Lavf61.1.100
  Duration: 00:23:46.66, start: 0.000000, bitrate: 3791 kb/s
  Stream #1:0[0x1](und): Video: h264 (High) (avc1 / 0x31637661), yuv420p(tv, bt709, progressive), 1920x1080 [SAR 1:1 DAR 16:9], 3643 kb/s, 23.98 fps, 23.98 tbr, 24k tbn (default)
      Metadata:
        handler_name    : VideoHandler
        vendor_id       : [0][0][0][0]
        encoder         : Lavc61.3.100 h264_qsv
  Stream #1:1[0x2](und): Audio: aac (HE-AACv2) (mp4a / 0x6134706D), 48000 Hz, stereo, fltp, 144 kb/s (default)
      Metadata:
        handler_name    : SoundHandler
        vendor_id       : [0][0][0][0]
Stream mapping:
  Stream #0:0 (hevc) -> settb:default
  Stream #1:0 (h264) -> settb:default
  ssim:default -> Stream #0:0 (wrapped_avframe)
  Stream #0:1 -> #0:1 (aac (native) -> pcm_s16le (native))
Output #0, null, to 'pipe:':
  Metadata:
    COMPATIBLE_BRANDS: isomiso2avc1mp41
    MAJOR_BRAND     : isom
    MINOR_VERSION   : 512
    encoder         : Lavf61.7.100
  Stream #0:0: Video: wrapped_avframe, yuv420p10le(tv, bt709, progressive), 1920x1080 [SAR 1:1 DAR 16:9], q=2-31, 200 kb/s, 23.98 fps, 23.98 tbn
      Metadata:
        encoder         : Lavc61.19.100 wrapped_avframe
  Stream #0:1: Audio: pcm_s16le, 48000 Hz, stereo, s16, 1536 kb/s (default)
      Metadata:
        HANDLER_NAME    : SoundHandler
        VENDOR_ID       : [0][0][0][0]
        _STATISTICS_TAGS: BPS DURATION NUMBER_OF_FRAMES NUMBER_OF_BYTES
        BPS             : 193839
        DURATION        : 00:23:46.688000000
        NUMBER_OF_FRAMES: 66877
        NUMBER_OF_BYTES : 34568476
        _STATISTICS_WRITING_APP: mkvpropedit v66.0.0 ('Josie') 64-bit
        _STATISTICS_WRITING_DATE_UTC: 2025-06-02 11:35:01
        encoder         : Lavc61.19.100 pcm_s16le
frame=  170 fps=0.0 q=-0.0 size=N/A time=00:00:07.09 bitrate=N/A speed=13.5x    frame=  442 fps=429 q=-0.0 size=N/A time=00:00:18.43 bitrate=N/A speed=17.9x    frame=  689 fps=444 q=-0.0 size=N/A time=00:00:28.73 bitrate=N/A speed=18.5x    frame=  956 fps=465 q=-0.0 size=N/A time=00:00:39.87 bitrate=N/A speed=19.4x    frame= 1217 fps=472 q=-0.0 size=N/A time=00:00:50.75 bitrate=N/A speed=19.7x    frame= 1400 fps=451 q=-0.0 size=N/A time=00:00:58.39 bitrate=N/A speed=18.8x    frame= 1603 fps=444 q=-0.0 size=N/A time=00:01:06.85 bitrate=N/A speed=18.5x    frame= 1824 fps=441 q=-0.0 size=N/A time=00:01:16.07 bitrate=N/A speed=18.4x    frame= 2028 fps=436 q=-0.0 size=N/A time=00:01:24.58 bitrate=N/A speed=18.2x    frame= 2207 fps=428 q=-0.0 size=N/A time=00:01:32.05 bitrate=N/A speed=17.9x    frame= 2422 fps=427 q=-0.0 size=N/A time=00:01:41.01 bitrate=N/A speed=17.8x    frame= 2613 fps=422 q=-0.0 size=N/A time=00:01:48.98 bitrate=N/A speed=17.6x    frame= 2758 fps=411 q=-0.0 size=N/A time=00:01:55.03 bitrate=N/A speed=17.2x    frame= 2936 fps=406 q=-0.0 size=N/A time=00:02:02.45 bitrate=N/A speed=16.9x    frame= 3096 fps=400 q=-0.0 size=N/A time=00:02:09.12 bitrate=N/A speed=16.7x    frame= 3274 fps=397 q=-0.0 size=N/A time=00:02:16.55 bitrate=N/A speed=16.5x    frame= 3481 fps=397 q=-0.0 size=N/A time=00:02:25.18 bitrate=N/A speed=16.6x    frame= 3724 fps=401 q=-0.0 size=N/A time=00:02:35.32 bitrate=N/A speed=16.7x    frame= 3982 fps=406 q=-0.0 size=N/A time=00:02:46.08 bitrate=N/A speed=16.9x    frame= 4231 fps=410 q=-0.0 size=N/A time=00:02:56.46 bitrate=N/A speed=17.1x    frame= 4496 fps=415 q=-0.0 size=N/A time=00:03:07.52 bitrate=N/A speed=17.3x    frame= 4750 fps=419 q=-0.0 size=N/A time=00:03:18.11 bitrate=N/A speed=17.5x    frame= 5006 fps=422 q=-0.0 size=N/A time=00:03:28.79 bitrate=N/A speed=17.6x    frame= 5251 fps=424 q=-0.0 size=N/A time=00:03:39.01 bitrate=N/A speed=17.7x    frame= 5505 fps=427 q=-0.0 size=N/A time=00:03:49.60 bitrate=N/A speed=17.8x    frame= 5750 fps=429 q=-0.0 size=N/A time=00:03:59.82 bitrate=N/A speed=17.9x    frame= 6019 fps=432 q=-0.0 size=N/A time=00:04:11.04 bitrate=N/A speed=  18x    frame= 6228 fps=431 q=-0.0 size=N/A time=00:04:19.75 bitrate=N/A speed=  18x    frame= 6397 fps=428 q=-0.0 size=N/A time=00:04:26.80 bitrate=N/A speed=17.8x    frame= 6566 fps=424 q=-0.0 size=N/A time=00:04:33.85 bitrate=N/A speed=17.7x    frame= 6776 fps=424 q=-0.0 size=N/A time=00:04:42.61 bitrate=N/A speed=17.7x    frame= 7000 fps=424 q=-0.0 size=N/A time=00:04:51.95 bitrate=N/A speed=17.7x    frame= 7256 fps=426 q=-0.0 size=N/A time=00:05:02.63 bitrate=N/A speed=17.8x    frame= 7513 fps=428 q=-0.0 size=N/A time=00:05:13.35 bitrate=N/A speed=17.9x    frame= 7748 fps=429 q=-0.0 size=N/A time=00:05:23.15 bitrate=N/A speed=17.9x    frame= 8017 fps=432 q=-0.0 size=N/A time=00:05:34.37 bitrate=N/A speed=  18x    frame= 8242 fps=432 q=-0.0 size=N/A time=00:05:43.76 bitrate=N/A speed=  18x    frame= 8467 fps=432 q=-0.0 size=N/A time=00:05:53.14 bitrate=N/A speed=  18x    frame= 8727 fps=434 q=-0.0 size=N/A time=00:06:03.98 bitrate=N/A speed=18.1x    frame= 8988 fps=436 q=-0.0 size=N/A time=00:06:14.87 bitrate=N/A speed=18.2x    frame= 9221 fps=436 q=-0.0 size=N/A time=00:06:24.59 bitrate=N/A speed=18.2x    frame= 9482 fps=438 q=-0.0 size=N/A time=00:06:35.47 bitrate=N/A speed=18.3x    frame= 9724 fps=439 q=-0.0 size=N/A time=00:06:45.57 bitrate=N/A speed=18.3x    frame= 9985 fps=440 q=-0.0 size=N/A time=00:06:56.45 bitrate=N/A speed=18.4x    frame=10231 fps=441 q=-0.0 size=N/A time=00:07:06.71 bitrate=N/A speed=18.4x    frame=10447 fps=440 q=-0.0 size=N/A time=00:07:15.72 bitrate=N/A speed=18.4x    frame=10721 fps=442 q=-0.0 size=N/A time=00:07:27.15 bitrate=N/A speed=18.4x    frame=10970 fps=443 q=-0.0 size=N/A time=00:07:37.54 bitrate=N/A speed=18.5x    frame=11244 fps=445 q=-0.0 size=N/A time=00:07:48.96 bitrate=N/A speed=18.6x    frame=11489 fps=446 q=-0.0 size=N/A time=00:07:59.18 bitrate=N/A speed=18.6x    frame=11707 fps=445 q=-0.0 size=N/A time=00:08:08.27 bitrate=N/A speed=18.6x    frame=11954 fps=446 q=-0.0 size=N/A time=00:08:18.58 bitrate=N/A speed=18.6x    frame=12221 fps=447 q=-0.0 size=N/A time=00:08:29.71 bitrate=N/A speed=18.6x    frame=12483 fps=448 q=-0.0 size=N/A time=00:08:40.64 bitrate=N/A speed=18.7x    frame=12757 fps=450 q=-0.0 size=N/A time=00:08:52.07 bitrate=N/A speed=18.8x    frame=13025 fps=451 q=-0.0 size=N/A time=00:09:03.25 bitrate=N/A speed=18.8x    frame=13281 fps=452 q=-0.0 size=N/A time=00:09:13.92 bitrate=N/A speed=18.8x    frame=13566 fps=453 q=-0.0 size=N/A time=00:09:25.81 bitrate=N/A speed=18.9x    frame=13766 fps=452 q=-0.0 size=N/A time=00:09:34.15 bitrate=N/A speed=18.9x    frame=13974 fps=451 q=-0.0 size=N/A time=00:09:42.83 bitrate=N/A speed=18.8x    frame=14170 fps=450 q=-0.0 size=N/A time=00:09:51.00 bitrate=N/A speed=18.8x    frame=14438 fps=451 q=-0.0 size=N/A time=00:10:02.18 bitrate=N/A speed=18.8x    frame=14684 fps=452 q=-0.0 size=N/A time=00:10:12.44 bitrate=N/A speed=18.8x    frame=14923 fps=452 q=-0.0 size=N/A time=00:10:22.41 bitrate=N/A speed=18.8x    frame=15168 fps=452 q=-0.0 size=N/A time=00:10:32.63 bitrate=N/A speed=18.9x    frame=15401 fps=452 q=-0.0 size=N/A time=00:10:42.35 bitrate=N/A speed=18.9x    frame=15639 fps=452 q=-0.0 size=N/A time=00:10:52.27 bitrate=N/A speed=18.9x    frame=15871 fps=452 q=-0.0 size=N/A time=00:11:01.95 bitrate=N/A speed=18.9x    frame=16133 fps=453 q=-0.0 size=N/A time=00:11:12.88 bitrate=N/A speed=18.9x    frame=16393 fps=454 q=-0.0 size=N/A time=00:11:23.72 bitrate=N/A speed=18.9x    frame=16659 fps=455 q=-0.0 size=N/A time=00:11:34.81 bitrate=N/A speed=  19x    frame=16908 fps=455 q=-0.0 size=N/A time=00:11:45.20 bitrate=N/A speed=  19x    frame=17129 fps=455 q=-0.0 size=N/A time=00:11:54.42 bitrate=N/A speed=  19x    frame=17359 fps=455 q=-0.0 size=N/A time=00:12:04.01 bitrate=N/A speed=  19x    frame=17604 fps=455 q=-0.0 size=N/A time=00:12:14.23 bitrate=N/A speed=  19x    frame=17845 fps=455 q=-0.0 size=N/A time=00:12:24.28 bitrate=N/A speed=  19x    frame=18094 fps=456 q=-0.0 size=N/A time=00:12:34.67 bitrate=N/A speed=  19x    frame=18350 fps=456 q=-0.0 size=N/A time=00:12:45.34 bitrate=N/A speed=  19x    frame=18598 fps=456 q=-0.0 size=N/A time=00:12:55.69 bitrate=N/A speed=  19x    frame=18858 fps=457 q=-0.0 size=N/A time=00:13:06.53 bitrate=N/A speed=19.1x    frame=19120 fps=458 q=-0.0 size=N/A time=00:13:17.46 bitrate=N/A speed=19.1x    frame=19337 fps=457 q=-0.0 size=N/A time=00:13:26.51 bitrate=N/A speed=19.1x    frame=19570 fps=457 q=-0.0 size=N/A time=00:13:36.23 bitrate=N/A speed=19.1x    frame=19765 fps=456 q=-0.0 size=N/A time=00:13:44.36 bitrate=N/A speed=  19x    frame=20014 fps=456 q=-0.0 size=N/A time=00:13:54.75 bitrate=N/A speed=  19x    frame=20279 fps=457 q=-0.0 size=N/A time=00:14:05.80 bitrate=N/A speed=19.1x    frame=20535 fps=458 q=-0.0 size=N/A time=00:14:16.48 bitrate=N/A speed=19.1x    frame=20785 fps=458 q=-0.0 size=N/A time=00:14:26.90 bitrate=N/A speed=19.1x    frame=21029 fps=458 q=-0.0 size=N/A time=00:14:37.08 bitrate=N/A speed=19.1x    frame=21295 fps=459 q=-0.0 size=N/A time=00:14:48.17 bitrate=N/A speed=19.1x    frame=21533 fps=459 q=-0.0 size=N/A time=00:14:58.10 bitrate=N/A speed=19.1x    frame=21786 fps=459 q=-0.0 size=N/A time=00:15:08.65 bitrate=N/A speed=19.1x    frame=22033 fps=459 q=-0.0 size=N/A time=00:15:18.95 bitrate=N/A speed=19.2x    frame=22300 fps=460 q=-0.0 size=N/A time=00:15:30.09 bitrate=N/A speed=19.2x    frame=22460 fps=458 q=-0.0 size=N/A time=00:15:36.76 bitrate=N/A speed=19.1x    frame=22705 fps=458 q=-0.0 size=N/A time=00:15:46.98 bitrate=N/A speed=19.1x    frame=22942 fps=458 q=-0.0 size=N/A time=00:15:56.87 bitrate=N/A speed=19.1x    frame=23163 fps=458 q=-0.0 size=N/A time=00:16:06.09 bitrate=N/A speed=19.1x    frame=23387 fps=458 q=-0.0 size=N/A time=00:16:15.43 bitrate=N/A speed=19.1x    frame=23622 fps=458 q=-0.0 size=N/A time=00:16:25.23 bitrate=N/A speed=19.1x    frame=23859 fps=458 q=-0.0 size=N/A time=00:16:35.11 bitrate=N/A speed=19.1x    frame=24098 fps=458 q=-0.0 size=N/A time=00:16:45.08 bitrate=N/A speed=19.1x    frame=24335 fps=458 q=-0.0 size=N/A time=00:16:54.97 bitrate=N/A speed=19.1x    frame=24564 fps=458 q=-0.0 size=N/A time=00:17:04.52 bitrate=N/A speed=19.1x    frame=24815 fps=458 q=-0.0 size=N/A time=00:17:14.99 bitrate=N/A speed=19.1x    frame=25046 fps=458 q=-0.0 size=N/A time=00:17:24.62 bitrate=N/A speed=19.1x    frame=25300 fps=458 q=-0.0 size=N/A time=00:17:35.22 bitrate=N/A speed=19.1x    frame=25562 fps=459 q=-0.0 size=N/A time=00:17:46.14 bitrate=N/A speed=19.1x    frame=25810 fps=459 q=-0.0 size=N/A time=00:17:56.49 bitrate=N/A speed=19.1x    frame=25981 fps=458 q=-0.0 size=N/A time=00:18:03.62 bitrate=N/A speed=19.1x    frame=26210 fps=458 q=-0.0 size=N/A time=00:18:13.17 bitrate=N/A speed=19.1x    frame=26466 fps=458 q=-0.0 size=N/A time=00:18:23.85 bitrate=N/A speed=19.1x    frame=26734 fps=459 q=-0.0 size=N/A time=00:18:35.03 bitrate=N/A speed=19.1x    frame=26998 fps=459 q=-0.0 size=N/A time=00:18:46.04 bitrate=N/A speed=19.1x    frame=27261 fps=459 q=-0.0 size=N/A time=00:18:57.01 bitrate=N/A speed=19.2x    frame=27505 fps=460 q=-0.0 size=N/A time=00:19:07.18 bitrate=N/A speed=19.2x    frame=27711 fps=459 q=-0.0 size=N/A time=00:19:15.77 bitrate=N/A speed=19.2x    frame=27931 fps=459 q=-0.0 size=N/A time=00:19:24.95 bitrate=N/A speed=19.1x    frame=28149 fps=458 q=-0.0 size=N/A time=00:19:34.04 bitrate=N/A speed=19.1x    frame=28405 fps=459 q=-0.0 size=N/A time=00:19:44.72 bitrate=N/A speed=19.1x    frame=28655 fps=459 q=-0.0 size=N/A time=00:19:55.15 bitrate=N/A speed=19.1x    frame=28890 fps=459 q=-0.0 size=N/A time=00:20:04.95 bitrate=N/A speed=19.1x    frame=29082 fps=458 q=-0.0 size=N/A time=00:20:12.96 bitrate=N/A speed=19.1x    frame=29318 fps=458 q=-0.0 size=N/A time=00:20:22.80 bitrate=N/A speed=19.1x    frame=29545 fps=458 q=-0.0 size=N/A time=00:20:32.27 bitrate=N/A speed=19.1x    frame=29790 fps=458 q=-0.0 size=N/A time=00:20:42.49 bitrate=N/A speed=19.1x    frame=30051 fps=459 q=-0.0 size=N/A time=00:20:53.37 bitrate=N/A speed=19.1x    frame=30290 fps=459 q=-0.0 size=N/A time=00:21:03.34 bitrate=N/A speed=19.1x    frame=30526 fps=459 q=-0.0 size=N/A time=00:21:13.18 bitrate=N/A speed=19.1x    frame=30786 fps=459 q=-0.0 size=N/A time=00:21:24.03 bitrate=N/A speed=19.1x    frame=31020 fps=459 q=-0.0 size=N/A time=00:21:33.79 bitrate=N/A speed=19.1x    frame=31224 fps=458 q=-0.0 size=N/A time=00:21:42.30 bitrate=N/A speed=19.1x    frame=31476 fps=459 q=-0.0 size=N/A time=00:21:52.81 bitrate=N/A speed=19.1x    frame=31729 fps=459 q=-0.0 size=N/A time=00:22:03.36 bitrate=N/A speed=19.1x    frame=31992 fps=459 q=-0.0 size=N/A time=00:22:14.33 bitrate=N/A speed=19.2x    frame=32210 fps=459 q=-0.0 size=N/A time=00:22:23.42 bitrate=N/A speed=19.1x    frame=32465 fps=459 q=-0.0 size=N/A time=00:22:34.06 bitrate=N/A speed=19.2x    frame=32712 fps=459 q=-0.0 size=N/A time=00:22:44.36 bitrate=N/A speed=19.2x    frame=32986 fps=460 q=-0.0 size=N/A time=00:22:55.79 bitrate=N/A speed=19.2x    frame=33205 fps=460 q=-0.0 size=N/A time=00:23:04.92 bitrate=N/A speed=19.2x    frame=33444 fps=460 q=-0.0 size=N/A time=00:23:14.89 bitrate=N/A speed=19.2x    frame=33693 fps=460 q=-0.0 size=N/A time=00:23:25.27 bitrate=N/A speed=19.2x    frame=33939 fps=460 q=-0.0 size=N/A time=00:23:35.53 bitrate=N/A speed=19.2x    [Parsed_ssim_10 @ 000001b50565a6c0] SSIM Y:0.994695 (22.753201) U:0.993372 (21.785935) V:0.993282 (21.727590) All:0.994239 (22.395007)
[out#0/null @ 000001b5057b5e00] video:14697KiB audio:267508KiB subtitle:0KiB other streams:0KiB global headers:0KiB muxing overhead: unknown
frame=34204 fps=460 q=-0.0 Lsize=N/A time=00:23:46.59 bitrate=N/A speed=19.2x    
